<?xml version="1.0" ?><svg id="Layer_1" style="enable-background:new 0 0 50 50;" version="1.1" viewBox="0 0 50 50" xml:space="preserve" xmlns="http://www.w3.org/2000/svg" xmlns:xlink="http://www.w3.org/1999/xlink"><style type="text/css">
	.st0{fill:#F0C4DB;}
	.st1{fill:#FF9D9C;}
	.st2{fill:#9BEAF9;}
	.st3{fill:#E9F4BC;}
	.st4{fill:#505050;}
	.st5{fill:#FEBECC;}
	.st6{fill:#FFFFFF;}
	.st7{fill:#FDE4A1;}
	.st8{fill:#FEE7B5;}
	.st9{fill:#CDF6FC;}
	.st10{fill:#F2C6DD;}
	.st11{opacity:0.1;}
</style><g><path class="st5" d="M16.29,37.55V22.49c-2.11-0.71-4.36-1.12-6.71-1.12c-3.07,0-5.98,0.67-8.61,1.86v25.62h28.58   c0.66-2.04,1.03-4.22,1.03-6.48c0-1.66-0.21-3.28-0.58-4.83H16.29z"/><g><path class="st3" d="M22.13,29.22l-12.5,12.5c4.11,3.82,9.61,6.16,15.65,6.16c11.22,0,20.57-8.04,22.59-18.67H22.13z"/><path class="st1" d="M22.12,29.22V2.11C10.92,3.64,2.28,13.26,2.28,24.89c0,6.65,2.83,12.64,7.34,16.84L22.12,29.22L22.12,29.22z"/><path class="st2" d="M25.28,1.89v24.18h23v-1.18C48.28,12.19,37.98,1.89,25.28,1.89z"/><g><path class="st4" d="M3.22,31.47c0.2-0.05,0.36-0.17,0.46-0.35c0.1-0.17,0.13-0.37,0.08-0.57c-0.11-0.39-0.52-0.63-0.92-0.53     c-0.19,0.05-0.36,0.17-0.46,0.35c-0.1,0.17-0.13,0.37-0.07,0.57c0.08,0.33,0.38,0.55,0.72,0.55C3.09,31.49,3.16,31.49,3.22,31.47     z"/><path class="st4" d="M47.87,28.48H23.12c-0.01,0-0.03,0-0.04,0h-0.21V2.12c0-0.22-0.09-0.42-0.26-0.57     c-0.16-0.14-0.38-0.21-0.59-0.18C16.39,2.14,11.21,4.93,7.44,9.22c-3.81,4.33-5.91,9.9-5.91,15.67c0,1.35,0.11,2.7,0.34,4.03     c0.07,0.4,0.46,0.68,0.87,0.61c0.4-0.07,0.68-0.46,0.61-0.86c0-0.01,0-0.01,0-0.02c-0.21-1.23-0.32-2.49-0.32-3.76     c0-10.82,7.71-20.02,18.34-21.9v25.93L9.62,40.67c-2.31-2.29-4.15-5.09-5.29-8.27c-0.14-0.38-0.58-0.59-0.96-0.45     c-0.39,0.14-0.59,0.57-0.45,0.96c3.37,9.41,12.35,15.73,22.35,15.73c11.39,0,21.2-8.1,23.33-19.27c0.04-0.22-0.01-0.45-0.16-0.62     C48.3,28.58,48.09,28.48,47.87,28.48z M25.27,47.14c-5.46,0-10.59-2.02-14.55-5.45l11.71-11.71h0.64c0.02,0,0.05,0,0.07,0h23.8     C44.58,40.09,35.68,47.14,25.27,47.14z"/><path class="st4" d="M43.7,9.93c-0.01-0.01-0.02-0.03-0.03-0.05c0,0-0.01,0-0.01-0.01C39.3,4.54,32.68,1.14,25.28,1.14     c-0.41,0-0.75,0.34-0.75,0.75v24.18c0,0.41,0.34,0.75,0.75,0.75h23c0.41,0,0.75-0.34,0.75-0.75v-1.18     C49.03,19.22,47.03,14.01,43.7,9.93z M40.48,25.32l6.26-6.26c0.26,0.94,0.45,1.91,0.58,2.9l-3.36,3.36H40.48z M34.89,25.32     l10.31-10.31c0.39,0.79,0.73,1.6,1.03,2.44l-7.87,7.87H34.89z M29.29,25.32l13.76-13.77c0.5,0.67,0.96,1.37,1.39,2.09     L32.76,25.32H29.29z M26.03,6.21l3.2-3.19c0.95,0.17,1.88,0.39,2.79,0.68l-5.99,5.99V6.21z M26.03,11.81l7.54-7.54     c0.81,0.33,1.6,0.69,2.36,1.11l-9.9,9.91V11.81z M26.03,17.41L37.25,6.17c0.7,0.45,1.38,0.93,2.02,1.46L26.03,20.87V17.41z      M27.36,2.76l-1.33,1.33V2.65C26.48,2.67,26.92,2.72,27.36,2.76z M26.03,22.99L40.41,8.62c0.6,0.56,1.16,1.14,1.7,1.76     L27.17,25.32h-1.15V22.99z M47.53,25.32h-1.45l1.4-1.4c0.01,0.32,0.05,0.64,0.05,0.97V25.32z"/></g></g></g></svg>